<svg id="Layer_1" data-name="Layer 1" xmlns="http://www.w3.org/2000/svg" viewBox="0 0 105.14 140.54"><defs><style>.cls-1{fill:#eeedf7;}.cls-1,.cls-2,.cls-3,.cls-4,.cls-6{stroke:#82368c;stroke-miterlimit:10;}.cls-2{fill:#fff;}.cls-3{fill:#a2bae2;}.cls-4{fill:none;stroke-linecap:round;}.cls-5{fill:#82368c;}.cls-6{fill:#3d316c;}</style></defs><path class="cls-1" d="M346,359.21a173.23,173.23,0,0,1,3.59,27c.34,6.38-.13,13.12-2.45,19.19-1.82,4.77-5.1,10.52-10.38,12-5.68,1.56-10.81-2.12-14.06-6.48-1.4-1.87-2.71-4-2.36-6.44a3.79,3.79,0,0,1,2.51-3.15c2.69-.82,4.83,1.93,6.17,4.3-1.28-1.45-2.3-4.1-.73-5.23s3.68.26,4.89,2.28a5.83,5.83,0,0,1-1.33-3.18,1.78,1.78,0,0,1,2.43-1.81,4.06,4.06,0,0,1,1.63,1.21,10.2,10.2,0,0,1,1.7,4.05c2-.54,3.1-2.73,3.7-4.74,1.86-6.19,1.26-12.63.46-19-1-7.54-3.06-14.76-5.05-22.06-1.32-4.81-4.22-11.3-1.3-16.07,3.69-5.95,6.88,4,7.7,6.77Q344.79,353.49,346,359.21Z" transform="translate(-245.07 -289.11)"/><path class="cls-2" d="M340.7,347.09c-.18-.93-.36-1.86-.55-2.78a114.6,114.6,0,0,0-8.51-25.16,5.61,5.61,0,0,0,4.81,1.9,11.69,11.69,0,0,0-4.32-10.17c2.1.38,3.68-2.34,3-4.38s-2.58-3.34-4.46-4.35a46.69,46.69,0,0,0-16-5.16c1.42.8,3-1.34,2.42-2.85s-2.32-2.22-3.88-2.69c-16.53-5-35.89.56-48.35,12.29-22,20.68-15.34,54.48-9.69,80.42l6.09,28c1,4.41,2.1,9.14,5.51,12.1,3.23,2.81,7.77,3.39,12,3.75a279.72,279.72,0,0,0,29.38.95c6.84-.14,20.26,1.47,26.17-2.37,4.1-2.66,4.81-9,5.45-13.41.93-6.41,2.07-12.77,2.69-19.23A169.84,169.84,0,0,0,340.7,347.09Z" transform="translate(-245.07 -289.11)"/><path class="cls-3" d="M316.69,308.37c5.37,4.84,7.47,12.41,7.7,19.63-1.58-.83-3.53.89-3.64,2.67s1,3.41,2,4.88c-1.3-.68-3,.54-3.23,2a5.6,5.6,0,0,0,1.32,4.09,4.12,4.12,0,0,0-4.15,2.95c-.22.85-.16,1.75-.3,2.62a7.89,7.89,0,0,1-4.53,5.52c-2.88,1.41-6.53,1.73-9.68,2-4.61.45-10.24.85-14.57-1.12a19,19,0,0,0-2.81-1.33,3.86,3.86,0,0,0,1.14-4.6,3.32,3.32,0,0,0-4.34-1.48,3.4,3.4,0,0,0,.37-3.9,4,4,0,0,0-4.6-1.39,3.46,3.46,0,0,0,2.27-2.46,3.22,3.22,0,0,0-2.06-3.82,11.06,11.06,0,0,1-2.31-.41c-1.27-.6-1.53-2.27-1.56-3.67a49.73,49.73,0,0,1,1.65-13.84c.87-3.27,2.18-6.62,4.79-8.78s4.26-3.44,8.26-3.25a10.31,10.31,0,0,1,9.2,6.45c1.32-4.83,3-6.21,6.35-6.71A16.11,16.11,0,0,1,316.69,308.37Z" transform="translate(-245.07 -289.11)"/><polygon class="cls-1" points="80 30.8 68.84 26.5 67.74 28.25 67.32 25.84 63.63 24.52 61.74 31.26 77.77 34.9 80 30.8"/><path class="cls-4" d="M314.81,329.58a2,2,0,0,0-3.91,0" transform="translate(-245.07 -289.11)"/><polygon class="cls-1" points="29.81 30.61 41.07 26.55 42.12 28.32 42.6 25.93 46.32 24.68 48.06 31.46 31.95 34.75 29.81 30.61"/><path class="cls-4" d="M285.16,329.58a2,2,0,0,1,3.91,0" transform="translate(-245.07 -289.11)"/><polygon class="cls-1" points="64.77 50.8 60.91 51.48 63.45 54.61 64.77 50.8"/><polygon class="cls-1" points="48.68 50.73 44.89 49.76 45.92 53.66 48.68 50.73"/><path class="cls-4" d="M288,337.42c6.88,4.51,19.42,3.49,23.17,1.66" transform="translate(-245.07 -289.11)"/><path class="cls-3" d="M306,389.65c-.12.09,6.79,8.28,6.79,8.28l-1-10.66A12.75,12.75,0,0,0,306,389.65Z" transform="translate(-245.07 -289.11)"/><path class="cls-2" d="M259.79,355.26a160.88,160.88,0,0,1-4.87,42l17-15c6.47-5.71,13.1-11.51,21-14.9a40.62,40.62,0,0,1,16.31-3.26c2,0,4.24.31,5.48,1.88s.25,4.61-1.73,4.34a3.61,3.61,0,0,1,.68,7.17c1.83.81,3.72,2.41,3.42,4.38-.35,2.3-3.21,3.07-5.51,3.35l-17.43,2.06a29.09,29.09,0,0,1-5.27.31,8.39,8.39,0,0,0-2.4,0,6.52,6.52,0,0,0-2.09,1l-28.21,18c-2.41,1.54-5.44,3.12-8,1.76-2.82-1.52-2.84-5.49-2.48-8.67q2.76-24.18,5.51-48.38a3.62,3.62,0,0,1,4.79-3.1C259.21,349.08,259.75,352.51,259.79,355.26Z" transform="translate(-245.07 -289.11)"/><path class="cls-5" d="M280.05,391.39c-1.88,1.45-3.81,2.8-5.76,4.14s-3.92,2.63-5.91,3.91-4,2.52-6,3.71l-3.06,1.79c-1,.57-2.06,1.16-3.12,1.7.94-.73,1.91-1.41,2.86-2.11l2.91-2c1.94-1.34,3.92-2.62,5.9-3.9s4-2.52,6-3.72S278,392.49,280.05,391.39Z" transform="translate(-245.07 -289.11)"/><path class="cls-5" d="M251.24,351.35a3.57,3.57,0,0,1,1.86-3,4.47,4.47,0,0,1,3.6-.1,4.67,4.67,0,0,1,2.59,2.59,10.71,10.71,0,0,1,.78,3.59,138.68,138.68,0,0,1-.19,14.42c-.33,4.8-.8,9.59-1.59,14.33s-1.78,9.46-3,14.12l-.69-.42,8.59-7.36,4.31-3.65,4.34-3.63-4.14,3.85L263.58,390l-8.38,7.59a.42.42,0,0,1-.59,0,.42.42,0,0,1-.1-.38h0c1.13-4.64,2.09-9.33,2.81-14.06s1.31-9.47,1.65-14.24.53-9.56.48-14.33a10.37,10.37,0,0,0-.64-3.42,4.34,4.34,0,0,0-2.26-2.46,4.16,4.16,0,0,0-3.37-.05A3.56,3.56,0,0,0,251.24,351.35Z" transform="translate(-245.07 -289.11)"/><rect class="cls-6" x="294.34" y="356.09" width="6.34" height="5.32" rx="1.43" transform="translate(-354.17 -158.13) rotate(-21.08)"/><rect class="cls-1" x="300.32" y="359.05" width="6.36" height="30.5" transform="translate(-359.36 -154.93) rotate(-21.08)"/><path class="cls-6" d="M310.71,395.42s2.1,2.5,2.1,2.5l-.29-3.24A4.07,4.07,0,0,0,310.71,395.42Z" transform="translate(-245.07 -289.11)"/><path class="cls-3" d="M313.85,377.32a3.61,3.61,0,0,0-.69-7.17c2,.27,3-2.78,1.74-4.34s-3.48-1.86-5.48-1.88a40.87,40.87,0,0,0-16.32,3.26c-6.46,2.76-12,7.12-17.39,11.73,1.22-.34,2.62-.61,3.06,0,.33.45,0,1.08-.3,1.54-.65,1-1.31,1.93-2,2.89,1.43-.63,3.23-1.22,4.44-.24a3,3,0,0,1,.45,3.59,8.74,8.74,0,0,1-2.75,2.73,13.33,13.33,0,0,1,3.53-.76,1.84,1.84,0,0,1-.08,1.34l2.47-1.58a6.74,6.74,0,0,1,2.09-1,8.39,8.39,0,0,1,2.4,0,28.92,28.92,0,0,0,5.26-.31l17.43-2.06c2.31-.27,5.17-1.05,5.51-3.35C317.56,379.73,315.67,378.13,313.85,377.32Z" transform="translate(-245.07 -289.11)"/><path class="cls-5" d="M326.84,378.09a7.37,7.37,0,0,1,.64,1.85c.16.63.3,1.27.44,1.91.28,1.28.46,2.58.63,3.88a34.3,34.3,0,0,1,.3,3.93,13.77,13.77,0,0,1-.49,4,9.44,9.44,0,0,1-1.8,3.68,4,4,0,0,1-4,1.47,3.15,3.15,0,0,1-1.67-1.47,7.46,7.46,0,0,1-.78-1.91,16.67,16.67,0,0,1-.51-4l.6.05a9.49,9.49,0,0,1-.47,1.67,2.85,2.85,0,0,1-.47.8,1.31,1.31,0,0,1-.85.46,1.17,1.17,0,0,1-.92-.27,2.39,2.39,0,0,1-.54-.7c-.29-.5-.45-1.05-.78-1.51a12.78,12.78,0,0,1,.95,1.4c.3.46.74.86,1.23.72s.72-.58.9-1.08a10.2,10.2,0,0,0,.35-1.61.3.3,0,0,1,.35-.25.32.32,0,0,1,.26.27v0a16.68,16.68,0,0,0,.7,3.75,6.83,6.83,0,0,0,.74,1.67,2.34,2.34,0,0,0,1.21,1,2.46,2.46,0,0,0,1.56-.18,4,4,0,0,0,1.37-1.05,8.63,8.63,0,0,0,1.62-3.28,22.15,22.15,0,0,0,.46-7.6c-.08-1.29-.24-2.58-.37-3.87-.08-.65-.16-1.29-.26-1.94A9.24,9.24,0,0,0,326.84,378.09Z" transform="translate(-245.07 -289.11)"/><path class="cls-5" d="M280.84,393.88a56.94,56.94,0,0,0-1.6,6.59,16.76,16.76,0,0,0,0,6.62,5.74,5.74,0,0,0,1.37,2.79,2.54,2.54,0,0,0,2.67.53,6.58,6.58,0,0,0,2.44-1.93,21.38,21.38,0,0,0,1.9-2.73l.76.52a2.32,2.32,0,0,0,.6,3.33,1.88,1.88,0,0,0,1.79-.13,1.69,1.69,0,0,0,.92-1.55l.64,0a1.24,1.24,0,0,0,1,1.28,1.71,1.71,0,0,0,1.72-.63,3.18,3.18,0,0,0,.73-1.94,10.8,10.8,0,0,0-.14-2.19,10.12,10.12,0,0,1,.36,2.19,3.52,3.52,0,0,1-.65,2.18,2,2,0,0,1-3.24.27,1.55,1.55,0,0,1-.39-1.27.31.31,0,0,1,.36-.27.32.32,0,0,1,.28.27h0a2.43,2.43,0,0,1-1.16,2.28,2.6,2.6,0,0,1-2.58.24,2.87,2.87,0,0,1-1.51-2.12,3.23,3.23,0,0,1,.56-2.54.47.47,0,0,1,.65-.09.48.48,0,0,1,.12.61h0a22.35,22.35,0,0,1-1.94,2.88,6.74,6.74,0,0,1-2.87,2.2,3.45,3.45,0,0,1-3.63-.79,6.59,6.59,0,0,1-1.57-3.25,17,17,0,0,1,.27-6.9A41.79,41.79,0,0,1,280.84,393.88Z" transform="translate(-245.07 -289.11)"/><path class="cls-5" d="M267.11,325.76c-1,1.92-1.88,3.89-2.74,5.86a48.31,48.31,0,0,0-2.15,6,11.71,11.71,0,0,0-.5,3.06c0,1,.24,2,1,2.24a3.42,3.42,0,0,0,2.71-.41,10.34,10.34,0,0,0,2.42-1.92h0a.38.38,0,0,1,.53,0,.38.38,0,0,1,.11.23l.2,2a5.53,5.53,0,0,0,.33,1.83c.26.47,1,.32,1.47-.09s.8-1,1.37-1.41a17.79,17.79,0,0,0-1.19,1.59,1.88,1.88,0,0,1-.92.55,1.07,1.07,0,0,1-1.1-.37,4.88,4.88,0,0,1-.56-2l-.33-2,.64.21a9.48,9.48,0,0,1-2.53,2.22,5.36,5.36,0,0,1-1.64.65,3.13,3.13,0,0,1-.92.07l-.46-.05-.47-.13a2.41,2.41,0,0,1-1.4-1.38,4.29,4.29,0,0,1-.28-1.78,12.89,12.89,0,0,1,.57-3.31,36,36,0,0,1,2.49-6A45,45,0,0,1,267.11,325.76Z" transform="translate(-245.07 -289.11)"/></svg>